<svg width="24" height="24" viewBox="0 0 24 24" fill="none" xmlns="http://www.w3.org/2000/svg">
<path fill-rule="evenodd" clip-rule="evenodd" d="M12.0079 21.0915C11.3515 21.0827 10.6973 21.0133 10.0537 20.884C9.90343 20.8583 9.74942 20.8648 9.60185 20.903C9.45428 20.9412 9.31649 21.0103 9.1976 21.1057C7.9675 22.0094 6.52322 22.577 5.00702 22.7527C4.92085 22.7618 4.83388 22.746 4.75636 22.7073C4.67884 22.6686 4.614 22.6085 4.56949 22.5342C4.52498 22.4599 4.50266 22.3743 4.50514 22.2877C4.50763 22.2011 4.53482 22.117 4.58352 22.0453C5.16959 21.3156 5.59038 20.4674 5.81685 19.5592C5.83929 19.4376 5.82772 19.3122 5.78344 19.1967C5.73915 19.0812 5.66386 18.9802 5.56585 18.9048C4.47492 18.0943 3.58613 17.0425 2.96891 15.8317C2.35169 14.6209 2.02276 13.2837 2.00781 11.9247C2.00781 6.86828 6.48498 2.75793 12.0078 2.75793C17.5306 2.75793 22.0078 6.86828 22.0078 11.9247C22.0078 16.9812 17.5306 21.0915 12.0079 21.0915ZM12.0053 17.7581C12.2525 17.7581 12.4942 17.6848 12.6998 17.5475C12.9053 17.4101 13.0656 17.2149 13.1602 16.9865C13.2548 16.7581 13.2795 16.5067 13.2313 16.2642C13.1831 16.0218 13.064 15.799 12.8892 15.6242C12.7144 15.4494 12.4917 15.3303 12.2492 15.2821C12.0067 15.2339 11.7554 15.2586 11.527 15.3532C11.2986 15.4478 11.1033 15.6081 10.966 15.8136C10.8286 16.0192 10.7553 16.2609 10.7553 16.5081C10.7553 16.8396 10.887 17.1576 11.1214 17.392C11.3559 17.6264 11.6738 17.7581 12.0053 17.7581ZM12.838 6.09131H11.1801C11.123 6.09064 11.0663 6.10163 11.0135 6.12361C10.9607 6.14558 10.9129 6.17808 10.8731 6.21912C10.8333 6.26017 10.8023 6.30889 10.782 6.36232C10.7616 6.41575 10.7524 6.47277 10.7548 6.5299L11.1359 13.6133C11.1429 13.721 11.1908 13.822 11.27 13.8954C11.3491 13.9688 11.4533 14.0092 11.5613 14.0081H12.4569C12.5648 14.0092 12.6691 13.9689 12.7482 13.8954C12.8273 13.822 12.8753 13.721 12.8823 13.6133L13.2634 6.5299C13.2659 6.47277 13.2566 6.41575 13.2362 6.36231C13.2159 6.30888 13.1849 6.26015 13.1451 6.21911C13.1052 6.17807 13.0575 6.14557 13.0047 6.12359C12.9519 6.10162 12.8952 6.09063 12.838 6.09131Z" fill="#6C7275" fill-opacity="0.75"/>
</svg>
