<svg width="24" height="24" viewBox="0 0 24 24" fill="none" xmlns="http://www.w3.org/2000/svg">
<path fill-rule="evenodd" clip-rule="evenodd" d="M21.5031 20H19.4895C17.633 20 15.8526 19.2625 14.5398 17.9498L12.295 15.705L12.2929 15.7071L9.99999 13.4142L8.57931 14.8349C8.84763 15.3301 9 15.8972 9 16.5C9 18.433 7.433 20 5.5 20C3.567 20 2 18.433 2 16.5C2 14.567 3.567 13 5.5 13C6.10276 13 6.66993 13.1524 7.1651 13.4207L8.58579 12L7.1651 10.5793C6.66993 10.8476 6.10276 11 5.5 11C3.56701 11 2 9.433 2 7.5C2 5.567 3.56701 4 5.5 4C7.433 4 9 5.567 9 7.5C9 8.10276 8.84764 8.66993 8.57932 9.1651L10 10.5858L12.2929 8.29289L12.295 8.29495L14.5398 6.0502C15.8525 4.73748 17.633 4 19.4894 4H21.503C21.9618 4 22.1783 4.56615 21.8367 4.87233L15.2849 10.7447C15.1014 10.9091 14.8638 11 14.6174 11H12.4142L11.4142 12L12.4143 13H14.6175C14.8638 13 15.1015 13.0909 15.2849 13.2553L21.8368 19.1277C22.1784 19.4339 21.9618 20 21.5031 20ZM4 7.5C4 8.32843 4.67158 9 5.5 9C6.32843 9 7 8.32843 7 7.5C7 6.67157 6.32843 6 5.5 6C4.67158 6 4 6.67157 4 7.5ZM4 16.5C4 15.6716 4.67157 15 5.5 15C6.32843 15 7 15.6716 7 16.5C7 17.3284 6.32843 18 5.5 18C4.67157 18 4 17.3284 4 16.5Z" fill="#0084FF"/>
</svg>
