<svg width="16" height="16" viewBox="0 0 16 16" fill="none" xmlns="http://www.w3.org/2000/svg">
<path fill-rule="evenodd" clip-rule="evenodd" d="M7.33342 0C6.22885 0 5.33342 0.895433 5.33342 2V2.66667H1.33341C0.965228 2.66667 0.666748 2.96515 0.666748 3.33333C0.666748 3.70152 0.965228 4 1.33341 4H2.00006C2.00007 4.01297 2.00046 4.02603 2.00123 4.03915L2.59407 14.1175C2.65625 15.1746 3.53167 16 4.59062 16H11.4095C12.4685 16 13.3439 15.1746 13.4061 14.1175L13.9989 4.03915C13.9997 4.02603 14.0001 4.01297 14.0001 4H14.6667C15.0349 4 15.3334 3.70152 15.3334 3.33333C15.3334 2.96515 15.0349 2.66667 14.6667 2.66667H10.6667V2C10.6667 0.895433 9.77135 0 8.66675 0H7.33342ZM9.33342 2.66667V2C9.33342 1.63181 9.03495 1.33333 8.66675 1.33333H7.33342C6.96521 1.33333 6.66675 1.63181 6.66675 2V2.66667H9.33342ZM3.33457 4L3.92511 14.0391C3.94583 14.3915 4.23763 14.6667 4.59062 14.6667H11.4095C11.7625 14.6667 12.0543 14.3915 12.0751 14.0391L12.6656 4H3.33457ZM9.33342 5.33333C9.70162 5.33333 10.0001 5.63181 10.0001 6V12.6667C10.0001 13.0349 9.70162 13.3333 9.33342 13.3333C8.96521 13.3333 8.66675 13.0349 8.66675 12.6667V6C8.66675 5.63181 8.96521 5.33333 9.33342 5.33333ZM7.33342 6C7.33342 5.63181 7.03495 5.33333 6.66675 5.33333C6.29855 5.33333 6.00008 5.63181 6.00008 6V12.6667C6.00008 13.0349 6.29855 13.3333 6.66675 13.3333C7.03495 13.3333 7.33342 13.0349 7.33342 12.6667V6Z" fill="#141718"/>
</svg>
