<svg width="24" height="24" viewBox="0 0 24 24" fill="none" xmlns="http://www.w3.org/2000/svg">
<path fill-rule="evenodd" clip-rule="evenodd" d="M20.3841 21.8172H3.61719C3.27579 21.8164 2.99974 21.5389 3.00061 21.1975C3.00066 21.1776 3.00167 21.1577 3.00364 21.1379C3.27819 18.3424 6.18994 15.2727 12.0006 15.2727C17.8113 15.2727 20.7229 18.3424 20.9975 21.1379C21.0313 21.4776 20.7833 21.7804 20.4435 21.8142C20.4238 21.8162 20.404 21.8172 20.3841 21.8172ZM12.0006 13.6366C9.3822 13.6366 7.09496 11.3641 7.09496 7.70556C7.09496 4.55599 9.07542 2.18359 12.0006 2.18359C14.9258 2.18359 16.9064 4.55599 16.9064 7.70556C16.9064 11.3641 14.6191 13.6366 12.0006 13.6366Z" fill="#6C7275" fill-opacity="0.75"/>
</svg>
