<svg width="36" height="37" viewBox="0 0 36 37" fill="none" xmlns="http://www.w3.org/2000/svg">
<path d="M33 14C33 13.2044 32.6839 12.4413 32.1213 11.8787C31.5587 11.3161 30.7956 11 30 11H28.245C27.8491 11.0003 27.4571 10.9223 27.0915 10.7704C26.726 10.6185 26.3941 10.3958 26.115 10.115L23.82 7.82C22.9769 6.97585 21.8331 6.50105 20.64 6.5H15.36C14.1669 6.50105 13.0231 6.97585 12.18 7.82L9.885 10.115C9.60591 10.3958 9.27402 10.6185 8.90845 10.7704C8.54288 10.9223 8.15087 11.0003 7.755 11H6C5.20435 11 4.44129 11.3161 3.87868 11.8787C3.31607 12.4413 3 13.2044 3 14V27.5C3 28.2956 3.31607 29.0587 3.87868 29.6213C4.44129 30.1839 5.20435 30.5 6 30.5H30C30.7956 30.5 31.5587 30.1839 32.1213 29.6213C32.6839 29.0587 33 28.2956 33 27.5V14ZM18 26C16.8133 26 15.6533 25.6481 14.6666 24.9888C13.6799 24.3295 12.9108 23.3925 12.4567 22.2961C12.0026 21.1997 11.8838 19.9933 12.1153 18.8295C12.3468 17.6656 12.9182 16.5965 13.7574 15.7574C14.5965 14.9182 15.6656 14.3468 16.8295 14.1153C17.9933 13.8838 19.1997 14.0026 20.2961 14.4567C21.3925 14.9108 22.3295 15.6799 22.9888 16.6666C23.6481 17.6533 24 18.8133 24 20C24 21.5913 23.3679 23.1174 22.2426 24.2426C21.1174 25.3679 19.5913 26 18 26Z" fill="#232627"/>
</svg>
