<svg width="24" height="24" viewBox="0 0 24 24" fill="none" xmlns="http://www.w3.org/2000/svg">
<g clip-path="url(#clip0_1_2607)">
<path d="M18.92 6.01C18.715 5.42 18.155 5 17.5 5H6.5C5.845 5 5.285 5.42 5.08 6.01L3.05533 11.8407C3.0187 11.9461 3 12.057 3 12.1687V20C3 20.55 3.45 21 4 21H5C5.555 21 6 20.55 6 20C6 19.4477 6.44772 19 7 19H17C17.5523 19 18 19.4477 18 20C18 20.55 18.45 21 19 21H20C20.555 21 21 20.55 21 20V12.1687C21 12.057 20.9813 11.9461 20.9447 11.8407L18.92 6.01ZM6.5 16C5.67 16 5 15.33 5 14.5C5 13.67 5.67 13 6.5 13C7.33 13 8 13.67 8 14.5C8 15.33 7.33 16 6.5 16ZM17.5 16C16.67 16 16 15.33 16 14.5C16 13.67 16.67 13 17.5 13C18.33 13 19 13.67 19 14.5C19 15.33 18.33 16 17.5 16ZM6.38743 11C5.70487 11 5.2229 10.3313 5.43874 9.68377L6.27208 7.18377C6.40819 6.77543 6.79033 6.5 7.22076 6.5H16.7792C17.2097 6.5 17.5918 6.77543 17.7279 7.18377L18.5613 9.68377C18.7771 10.3313 18.2951 11 17.6126 11H6.38743Z" fill="#0084FF"/>
</g>
<defs>
<clipPath id="clip0_1_2607">
<rect width="24" height="24" fill="white"/>
</clipPath>
</defs>
</svg>
