<svg width="40" height="40" viewBox="0 0 40 40" fill="none" xmlns="http://www.w3.org/2000/svg">
<path d="M27.4525 14.119C27.8864 13.685 27.8864 12.9815 27.4525 12.5476C27.0186 12.1137 26.3151 12.1137 25.8812 12.5476L20.0002 18.4286L14.1192 12.5476C13.6853 12.1137 12.9818 12.1137 12.5478 12.5476C12.1139 12.9815 12.1139 13.685 12.5478 14.119L18.4288 19.9999L12.5478 25.8809C12.1139 26.3149 12.1139 27.0184 12.5478 27.4523C12.9818 27.8862 13.6853 27.8862 14.1192 27.4523L20.0002 21.5713L25.8812 27.4523C26.3151 27.8862 27.0186 27.8862 27.4525 27.4523C27.8864 27.0184 27.8864 26.3149 27.4525 25.8809L21.5715 19.9999L27.4525 14.119Z" fill="#232627"/>
</svg>
