<svg width="24" height="24" viewBox="0 0 24 24" fill="none" xmlns="http://www.w3.org/2000/svg">
<path d="M2 7.5V4.5C2 4.36739 2.05268 4.24021 2.14645 4.14645C2.24021 4.05268 2.36739 4 2.5 4H10.5C10.6326 4 10.7598 4.05268 10.8536 4.14645C10.9473 4.24021 11 4.36739 11 4.5V7.5C11 7.63261 10.9473 7.75979 10.8536 7.85355C10.7598 7.94732 10.6326 8 10.5 8H2.5C2.36739 8 2.24021 7.94732 2.14645 7.85355C2.05268 7.75979 2 7.63261 2 7.5ZM21.5 4H13.5C13.3674 4 13.2402 4.05268 13.1464 4.14645C13.0527 4.24021 13 4.36739 13 4.5V7.5C13 7.63261 13.0527 7.75979 13.1464 7.85355C13.2402 7.94732 13.3674 8 13.5 8H21.5C21.6326 8 21.7598 7.94732 21.8536 7.85355C21.9473 7.75979 22 7.63261 22 7.5V4.5C22 4.36739 21.9473 4.24021 21.8536 4.14645C21.7598 4.05268 21.6326 4 21.5 4ZM2.5 14H4.5C4.63261 14 4.75979 13.9473 4.85355 13.8536C4.94732 13.7598 5 13.6326 5 13.5V10.5C5 10.3674 4.94732 10.2402 4.85355 10.1464C4.75979 10.0527 4.63261 10 4.5 10H2.5C2.36739 10 2.24021 10.0527 2.14645 10.1464C2.05268 10.2402 2 10.3674 2 10.5V13.5C2 13.6326 2.05268 13.7598 2.14645 13.8536C2.24021 13.9473 2.36739 14 2.5 14ZM7 10.5V13.5C7 13.6326 7.05268 13.7598 7.14645 13.8536C7.24021 13.9473 7.36739 14 7.5 14H16.5C16.6326 14 16.7598 13.9473 16.8536 13.8536C16.9473 13.7598 17 13.6326 17 13.5V10.5C17 10.3674 16.9473 10.2402 16.8536 10.1464C16.7598 10.0527 16.6326 10 16.5 10H7.5C7.36739 10 7.24021 10.0527 7.14645 10.1464C7.05268 10.2402 7 10.3674 7 10.5ZM21.5 10H19.5C19.3674 10 19.2402 10.0527 19.1464 10.1464C19.0527 10.2402 19 10.3674 19 10.5V13.5C19 13.6326 19.0527 13.7598 19.1464 13.8536C19.2402 13.9473 19.3674 14 19.5 14H21.5C21.6326 14 21.7598 13.9473 21.8536 13.8536C21.9473 13.7598 22 13.6326 22 13.5V10.5C22 10.3674 21.9473 10.2402 21.8536 10.1464C21.7598 10.0527 21.6326 10 21.5 10ZM10.5 16H2.5C2.36739 16 2.24021 16.0527 2.14645 16.1464C2.05268 16.2402 2 16.3674 2 16.5V19.5C2 19.6326 2.05268 19.7598 2.14645 19.8536C2.24021 19.9473 2.36739 20 2.5 20H10.5C10.6326 20 10.7598 19.9473 10.8536 19.8536C10.9473 19.7598 11 19.6326 11 19.5V16.5C11 16.3674 10.9473 16.2402 10.8536 16.1464C10.7598 16.0527 10.6326 16 10.5 16ZM21.5 16H13.5C13.3674 16 13.2402 16.0527 13.1464 16.1464C13.0527 16.2402 13 16.3674 13 16.5V19.5C13 19.6326 13.0527 19.7598 13.1464 19.8536C13.2402 19.9473 13.3674 20 13.5 20H21.5C21.6326 20 21.7598 19.9473 21.8536 19.8536C21.9473 19.7598 22 19.6326 22 19.5V16.5C22 16.3674 21.9473 16.2402 21.8536 16.1464C21.7598 16.0527 21.6326 16 21.5 16Z" fill="#0084FF"/>
</svg>
