<svg width="24" height="24" viewBox="0 0 24 24" fill="none" xmlns="http://www.w3.org/2000/svg">
<path fill-rule="evenodd" clip-rule="evenodd" d="M2.97059 17.0837C2.67908 17.3361 2.44271 17.6459 2.27623 17.9937C2.10975 18.3415 2.01674 18.7199 2.003 19.1053C1.98926 19.4907 2.05509 19.8747 2.19637 20.2335C2.33765 20.5923 2.55136 20.9181 2.82416 21.1907C3.09696 21.4632 3.423 21.6766 3.78193 21.8175C4.14087 21.9585 4.52499 22.0239 4.91034 22.0098C5.2957 21.9957 5.674 21.9023 6.02166 21.7355C6.36932 21.5687 6.67887 21.332 6.931 21.0402L13.4106 13.5375C13.4739 13.4657 13.5581 13.4155 13.6514 13.394C13.7446 13.3724 13.8423 13.3805 13.9307 13.4172C14.9417 13.8184 16.0442 13.9309 17.1154 13.7419C18.2622 13.5349 19.3229 12.9953 20.1655 12.1903C21.0082 11.3853 21.5956 10.3504 21.8548 9.21421C22.0112 8.5274 22.0415 7.81789 21.9443 7.12024C21.9322 7.03595 21.8968 6.9567 21.8421 6.89147C21.7874 6.82623 21.7155 6.77761 21.6346 6.75109C21.5537 6.72457 21.4669 6.72122 21.3842 6.74141C21.3015 6.7616 21.2261 6.80452 21.1665 6.86534L18.0941 10.0055C18.0379 10.0629 17.9676 10.1044 17.8902 10.1257C17.8128 10.1471 17.7312 10.1476 17.6535 10.1272L14.927 9.40973C14.8492 9.38923 14.7782 9.34844 14.7213 9.29154C14.6644 9.23464 14.6236 9.16366 14.6031 9.08585L13.8857 6.3594C13.8652 6.28175 13.8657 6.20006 13.8871 6.12267C13.9085 6.04527 13.95 5.97493 14.0074 5.91879L17.1483 2.84664C17.2092 2.78704 17.2521 2.71161 17.2723 2.62888C17.2925 2.54614 17.2892 2.45941 17.2627 2.37847C17.2361 2.29754 17.1875 2.22565 17.1222 2.17092C17.057 2.11619 16.9777 2.08081 16.8934 2.06879C16.1944 1.97127 15.4835 2.00179 14.7954 2.15886C13.6595 2.41866 12.625 3.00658 11.8205 3.84953C11.016 4.69248 10.477 5.75328 10.2705 6.90008C10.0822 7.97046 10.1948 9.07211 10.5957 10.0823C10.6326 10.1704 10.641 10.2678 10.6196 10.361C10.5982 10.4541 10.5482 10.5381 10.4765 10.6013C9.38064 11.5478 4.95444 15.3705 2.97059 17.0837ZM4.72772 20.6485C4.45802 20.6485 4.19437 20.5686 3.97011 20.4187C3.74586 20.2689 3.57107 20.0559 3.46785 19.8067C3.36464 19.5576 3.33763 19.2834 3.39024 19.0189C3.44286 18.7543 3.57273 18.5114 3.76344 18.3206C3.95415 18.1299 4.19713 18.0001 4.46166 17.9474C4.72618 17.8948 5.00037 17.9218 5.24954 18.0251C5.49871 18.1283 5.71168 18.3031 5.86152 18.5273C6.01135 18.7516 6.09132 19.0152 6.09131 19.2849C6.09134 19.464 6.0561 19.6413 5.98758 19.8068C5.91907 19.9723 5.81863 20.1226 5.69201 20.2493C5.56538 20.3759 5.41505 20.4764 5.2496 20.5449C5.08414 20.6134 4.90681 20.6485 4.72772 20.6485Z" fill="#0084FF"/>
</svg>
