<svg width="24" height="24" viewBox="0 0 24 24" fill="none" xmlns="http://www.w3.org/2000/svg">
<path fill-rule="evenodd" clip-rule="evenodd" d="M4.41753 16.2491C4.80433 16.1483 5.14885 15.9267 5.40084 15.6164C5.65283 15.3061 5.79912 14.9235 5.81838 14.5242L6.47576 8.99637C6.60937 7.90463 7.06578 6.87761 7.78655 6.0468C8.50731 5.21599 9.45964 4.6192 10.5216 4.33284C10.5626 3.96839 10.7364 3.63183 11.0099 3.38743C11.2833 3.14304 11.6372 3.00793 12.0039 3.00793C12.3707 3.00793 12.7246 3.14304 12.998 3.38743C13.2715 3.63183 13.4453 3.96839 13.4863 4.33284C14.5483 4.61918 15.5006 5.21594 16.2214 6.04673C16.9422 6.87752 17.3986 7.90452 17.5323 8.99626L18.1896 14.5241C18.2089 14.9234 18.3553 15.306 18.6073 15.6163C18.8593 15.9265 19.2038 16.1482 19.5906 16.2489C19.8013 16.3053 19.9842 16.4367 20.1048 16.6184C20.2254 16.8001 20.2755 17.0196 20.2457 17.2356C20.2158 17.4517 20.1081 17.6494 19.9427 17.7915C19.7773 17.9337 19.5657 18.0106 19.3476 18.0077H4.66027C4.4422 18.0106 4.2306 17.9337 4.06524 17.7915C3.89988 17.6493 3.79215 17.4516 3.76232 17.2356C3.73248 17.0195 3.78259 16.8 3.90322 16.6183C4.02385 16.4367 4.20685 16.3054 4.41753 16.2491ZM12.0038 21.0078C11.4397 21.009 10.8957 20.799 10.4788 20.4191C10.0619 20.0392 9.80235 19.5169 9.75131 18.9552C9.74991 18.9296 9.7538 18.9039 9.76272 18.8799C9.77165 18.8558 9.78543 18.8338 9.8032 18.8153C9.82098 18.7968 9.84236 18.7822 9.86604 18.7723C9.88972 18.7624 9.91517 18.7575 9.94083 18.7578H14.0668C14.0925 18.7574 14.1179 18.7623 14.1416 18.7722C14.1653 18.7821 14.1867 18.7968 14.2045 18.8153C14.2223 18.8338 14.2361 18.8558 14.245 18.8798C14.254 18.9039 14.2579 18.9295 14.2565 18.9552C14.2054 19.5169 13.9458 20.0392 13.5289 20.4191C13.1119 20.799 12.5679 21.0091 12.0038 21.0078Z" fill="#6C7275" fill-opacity="0.75"/>
</svg>
