<svg width="24" height="24" viewBox="0 0 24 24" fill="none" xmlns="http://www.w3.org/2000/svg">
<path d="M6.99995 3C5.93908 3 4.92166 3.42143 4.17152 4.17157C3.42137 4.92172 2.99995 5.93913 2.99995 7C2.99995 8.06087 3.42137 9.07828 4.17152 9.82843C4.92166 10.5786 5.93908 11 6.99995 11C8.06081 11 9.07823 10.5786 9.82837 9.82843C10.5785 9.07828 10.9999 8.06087 10.9999 7C10.9999 5.93913 10.5785 4.92172 9.82837 4.17157C9.07823 3.42143 8.06081 3 6.99995 3ZM14.9999 3C13.8949 3 12.9999 3.895 12.9999 5V9C12.9999 10.105 13.8949 11 14.9999 11H18.9999C20.1049 11 20.9999 10.105 20.9999 9V5C20.9999 3.895 20.1049 3 18.9999 3H14.9999ZM16.5273 12.7344C16.3069 12.728 16.0906 12.7946 15.9121 12.9238L12.6171 15.3184C12.4465 15.4424 12.3194 15.6173 12.2542 15.818C12.1889 16.0187 12.1888 16.2348 12.2539 16.4355L13.5136 20.3086C13.5788 20.5095 13.706 20.6847 13.8769 20.8089C14.0477 20.9331 14.2535 21 14.4648 21H18.5351C18.7464 21 18.9522 20.9331 19.123 20.8089C19.2939 20.6847 19.4211 20.5095 19.4863 20.3086L20.746 16.4355C20.8111 16.2348 20.811 16.0187 20.7457 15.818C20.6805 15.6173 20.5534 15.4424 20.3828 15.3184L17.0878 12.9238C16.9244 12.8056 16.729 12.7395 16.5273 12.7344ZM7.00776 13C6.82071 12.9985 6.637 13.0495 6.4775 13.1473C6.31799 13.245 6.18908 13.3854 6.10542 13.5527L3.10542 19.5527C3.0292 19.7052 2.99322 19.8746 3.00089 20.0449C3.00857 20.2152 3.05964 20.3807 3.14926 20.5257C3.23888 20.6707 3.36408 20.7904 3.51297 20.8734C3.66185 20.9564 3.82948 21 3.99995 21H9.99995C10.1704 21 10.338 20.9564 10.4869 20.8734C10.6358 20.7904 10.761 20.6707 10.8506 20.5257C10.9403 20.3807 10.9913 20.2152 10.999 20.0449C11.0067 19.8746 10.9707 19.7052 10.8945 19.5527L7.89448 13.5527C7.812 13.3878 7.68553 13.2489 7.52904 13.1514C7.37256 13.0538 7.19215 13.0014 7.00776 13Z" fill="#0084FF"/>
</svg>
