<svg width="18" height="18" viewBox="0 0 18 18" fill="none" xmlns="http://www.w3.org/2000/svg">
<path d="M16.5789 10.4211H10.4211V16.5789C10.4211 17.3558 9.77684 18 9 18C8.22316 18 7.57895 17.3558 7.57895 16.5789V10.4211H1.42105C0.644211 10.4211 0 9.77684 0 9C0 8.22316 0.644211 7.57895 1.42105 7.57895H7.57895V1.42105C7.57895 0.644211 8.22316 0 9 0C9.77684 0 10.4211 0.644211 10.4211 1.42105V7.57895H16.5789C17.3558 7.57895 18 8.22316 18 9C18 9.77684 17.3558 10.4211 16.5789 10.4211Z" fill="#FEFEFE"/>
</svg>
