<svg width="22" height="23" viewBox="0 0 22 23" fill="none" xmlns="http://www.w3.org/2000/svg">
<g clip-path="url(#clip0_204_602)">
<path fill-rule="evenodd" clip-rule="evenodd" d="M20.1667 10.125V11.0416C20.6529 11.0416 21.1192 11.2348 21.463 11.5786C21.8068 11.9224 22 12.3888 22 12.875V15.625C22 16.3543 21.7103 17.0538 21.1945 17.5695C20.9018 17.8623 20.5498 18.0823 20.1667 18.2177L20.1667 18.375V18.4575L20.1654 18.4582C20.1443 19.1574 19.8573 19.8235 19.3612 20.3195C18.8455 20.8352 18.146 21.125 17.4167 21.125H13.5044C13.4844 21.1595 13.4633 21.1935 13.441 21.2269C13.2396 21.5283 12.9533 21.7633 12.6183 21.9021C12.2833 22.0409 11.9146 22.0772 11.559 22.0064C11.2034 21.9357 10.8767 21.7611 10.6203 21.5047C10.3639 21.2483 10.1893 20.9216 10.1186 20.566C10.0478 20.2103 10.0841 19.8417 10.2229 19.5067C10.3616 19.1717 10.5966 18.8854 10.8981 18.684C11.1996 18.4825 11.5541 18.375 11.9167 18.375C12.4029 18.375 12.8692 18.5681 13.213 18.912C13.3273 19.0262 13.425 19.1541 13.5044 19.2916H17.4167C17.6598 19.2916 17.8929 19.1951 18.0648 19.0232C18.1366 18.9514 18.1952 18.869 18.2392 18.7797L18.2325 18.7783C18.2964 18.6536 18.3309 18.5159 18.3333 18.3758V18.375V18.2177C17.9503 18.0823 17.5982 17.8623 17.3055 17.5695C16.7897 17.0538 16.5 16.3543 16.5 15.625V12.875C16.5 12.3888 16.6932 11.9224 17.037 11.5786C17.3808 11.2348 17.8471 11.0416 18.3333 11.0416V10.125C18.3333 8.18006 17.5607 6.3148 16.1854 4.93953C14.8102 3.56426 12.9449 2.79165 11 2.79165C9.05508 2.79165 7.18982 3.56426 5.81455 4.93953C4.43928 6.3148 3.66667 8.18006 3.66667 10.125V11.0416C4.1529 11.0416 4.61921 11.2348 4.96303 11.5786C5.30685 11.9224 5.5 12.3888 5.5 12.875V15.625C5.5 16.3543 5.21027 17.0538 4.69454 17.5695C4.17882 18.0852 3.47935 18.375 2.75 18.375C2.02065 18.375 1.32118 18.0852 0.805456 17.5695C0.289731 17.0538 0 16.3543 0 15.625V12.875C0 12.3888 0.193154 11.9224 0.536971 11.5786C0.880788 11.2348 1.3471 11.0416 1.83333 11.0416V10.125C1.83333 7.69383 2.7991 5.36225 4.51819 3.64317C6.23727 1.92408 8.56885 0.958313 11 0.958313C13.4312 0.958313 15.7627 1.92408 17.4818 3.64317C19.2009 5.36225 20.1667 7.69383 20.1667 10.125Z" fill="#6C7275" fill-opacity="0.75"/>
</g>
<defs>
<clipPath id="clip0_204_602">
<rect width="22" height="21.0833" fill="white" transform="translate(0 0.958313)"/>
</clipPath>
</defs>
</svg>
